<svg width="81" height="16" viewBox="0 0 81 16" fill="none" xmlns="http://www.w3.org/2000/svg">
<path d="M0.332031 0.859375L5.52734 10.4688V15H9.21875V10.4688L14.4141 0.859375H10.2539L7.42188 6.64062H7.30469L4.49219 0.859375H0.332031ZM15.7031 15H25.7812V11.9922H19.4141V9.43359H25.2734V6.42578H19.4141V3.86719H25.8008V0.859375H15.7031V15ZM27.7539 15H31.4648V10.293H32.9199L35.4297 15H39.4727L36.582 9.69727C38.1055 8.97461 39.0039 7.59766 39.0039 5.64453C39.0039 2.65625 36.9336 0.859375 33.7695 0.859375H27.7539V15ZM31.4648 7.38281V3.82812H32.9102C34.3066 3.83789 35.127 4.39453 35.1172 5.64453C35.127 6.875 34.3066 7.38281 32.9102 7.38281H31.4648ZM44.3945 0.859375H40.6836V15H44.3945V0.859375ZM46.3086 0.859375V15H49.9414V6.62109H50.0586L53.2617 14.9023H55.4883L58.7109 6.67969H58.8281V15H62.4609V0.859375H57.832L54.4727 9.08203H54.2969L50.9375 0.859375H46.3086ZM66.4258 15.2148C67.4219 15.2148 68.3105 14.375 68.3203 13.3203C68.3105 12.2852 67.4219 11.4453 66.4258 11.4453C65.3809 11.4453 64.5215 12.2852 64.5312 13.3203C64.5215 14.375 65.3809 15.2148 66.4258 15.2148ZM75.4688 15.1953C78.3691 15.1953 80.2441 13.8086 80.6055 11.6211H77.2266C76.9922 12.2363 76.3574 12.5781 75.5469 12.5781C74.3652 12.5781 73.6719 11.8066 73.6719 10.7031V10.5664H80.625V9.6875C80.6152 6.2793 78.5352 4.25781 75.3906 4.25781C72.1191 4.25781 70.0293 6.44531 70.0195 9.72656C70.0293 13.1543 72.0898 15.1953 75.4688 15.1953ZM73.6719 8.49609C73.7012 7.53906 74.4824 6.86523 75.4688 6.875C76.4551 6.86523 77.1973 7.53906 77.207 8.49609H73.6719Z" fill="white"/>
</svg>
