<svg width="100%" height="100%" viewBox="0 0 40 40" fill="none" xmlns="http://www.w3.org/2000/svg">
<path d="M29.6863 37.5063C29.5375 37.5851 29.55 37.6101 29.6925 37.5376C29.7364 37.5196 29.7767 37.4938 29.8113 37.4613C29.8113 37.4351 29.8113 37.4351 29.6863 37.5063ZM29.9863 37.3438C29.915 37.4026 29.915 37.4026 30 37.3638C30.0314 37.3491 30.0601 37.3293 30.085 37.3051C30.085 37.2713 30.065 37.2788 29.9863 37.3438ZM30.1813 37.2263C30.11 37.2851 30.11 37.2851 30.195 37.2463C30.2265 37.2313 30.2553 37.211 30.28 37.1863C30.28 37.1551 30.26 37.1613 30.1813 37.2263ZM30.3787 37.1101C30.3075 37.1688 30.3075 37.1688 30.39 37.1288C30.4363 37.1038 30.475 37.0776 30.475 37.0701C30.475 37.0388 30.455 37.0451 30.3787 37.1101ZM30.645 36.9338C30.5088 37.0251 30.4612 37.0838 30.5862 37.0188C30.67 36.9676 30.8125 36.8551 30.7875 36.8551C30.7337 36.8751 30.6887 36.9088 30.6437 36.9338H30.645ZM18.6913 0.0138262C18.6 0.0200762 18.3262 0.0450762 18.0862 0.0650762C12.4013 0.580076 7.0825 3.64008 3.71125 8.35383C1.84821 10.9391 0.637198 13.9362 0.18125 17.0901C0.02 18.1901 0 18.5151 0 20.0063C0 21.4963 0.02 21.8163 0.18125 22.9163C1.27 30.4301 6.615 36.7376 13.86 39.0751C15.1638 39.4913 16.53 39.7788 18.0862 39.9551C18.6912 40.0201 21.3075 40.0201 21.9125 39.9551C24.6025 39.6551 26.8738 38.9913 29.1213 37.8451C29.4663 37.6701 29.5312 37.6238 29.485 37.5851C28.3886 36.1358 27.3015 34.6795 26.2238 33.2163L23.0275 28.9001L19.0237 22.9688C17.692 20.9829 16.3465 19.0062 14.9875 17.0388C14.9737 17.0388 14.9562 19.6751 14.9487 22.8901C14.935 28.5213 14.935 28.7501 14.8637 28.8801C14.7954 29.0371 14.673 29.1644 14.5187 29.2388C14.395 29.2976 14.2838 29.3101 13.6925 29.3101H13.0163L12.84 29.2001C12.7296 29.1293 12.6399 29.0305 12.58 28.9138L12.495 28.7376L12.5013 20.8988L12.515 13.0601L12.6388 12.9038C12.7178 12.8078 12.8151 12.7283 12.925 12.6701C13.0888 12.5913 13.1538 12.5788 13.83 12.5788C14.6238 12.5788 14.755 12.6101 14.9637 12.8388C16.5857 15.2512 18.1936 17.6729 19.7875 20.1038C22.3862 24.0438 25.9338 29.4201 27.6775 32.0576L30.8488 36.8563L31.005 36.7526C32.5291 35.7398 33.9102 34.5269 35.1113 33.1463C37.6307 30.2627 39.2655 26.7139 39.82 22.9251C39.9813 21.8251 40.0012 21.4988 40.0012 20.0088C40.0012 18.5176 39.9813 18.1988 39.82 17.0988C38.7313 9.58508 33.3863 3.27758 26.1413 0.938826C24.7872 0.509977 23.3936 0.218098 21.9812 0.0675762C21.6025 0.0288262 19.0175 -0.0174238 18.6925 0.0163262L18.6913 0.0138262ZM26.875 12.1101C26.968 12.1557 27.0509 12.2195 27.119 12.2976C27.187 12.3758 27.2388 12.4667 27.2712 12.5651C27.305 12.6701 27.3112 14.8438 27.305 19.7401L27.2913 26.7701L26.055 24.8701L24.8113 22.9688V17.8651C24.8113 14.5563 24.825 12.7013 24.8425 12.6101C24.9037 12.4008 25.044 12.2237 25.2338 12.1163C25.3888 12.0376 25.4488 12.0313 26.0675 12.0313C26.6463 12.0313 26.745 12.0376 26.875 12.1101Z" fill="black"/>
</svg>
