<svg width="42" height="40" viewBox="0 0 42 40" fill="none" xmlns="http://www.w3.org/2000/svg">
<path d="M31.625 0H10.375C5.19733 0 1 4.19733 1 9.375V30.625C1 35.8027 5.19733 40 10.375 40H31.625C36.8027 40 41 35.8027 41 30.625V9.375C41 4.19733 36.8027 0 31.625 0Z" fill="#242938"/>
<path d="M21 22.9611C22.61 22.9611 23.915 21.6559 23.915 20.0461C23.915 18.4363 22.61 17.1311 21 17.1311C19.3901 17.1311 18.085 18.4363 18.085 20.0461C18.085 21.6559 19.3901 22.9611 21 22.9611Z" fill="#00D8FF"/>
<path d="M21.0003 14.1191C24.9141 14.1191 28.5498 14.6807 31.2912 15.6246C34.5942 16.7616 36.625 18.4852 36.625 20.046C36.625 21.6724 34.4728 23.5035 30.9258 24.6787C28.2442 25.5671 24.7155 26.0309 21.0003 26.0309C17.1912 26.0309 13.5842 25.5955 10.8723 24.6688C7.44141 23.4962 5.375 21.6415 5.375 20.046C5.375 18.4979 7.31406 16.7876 10.5706 15.6523C13.3222 14.6929 17.0477 14.1191 20.9997 14.1191H21.0003Z" stroke="#00D8FF" stroke-width="8.911"/>
<path d="M15.8407 17.0997C17.796 13.7094 20.0987 10.8403 22.2859 8.93719C24.9209 6.6439 27.4287 5.74578 28.7806 6.52531C30.1895 7.33781 30.7006 10.1172 29.9467 13.7769C29.3771 16.5436 28.0156 19.832 26.1595 23.0505C24.2565 26.3502 22.0776 29.2573 19.9202 31.143C17.1904 33.5292 14.5512 34.3928 13.1692 33.5958C11.8281 32.823 11.3152 30.2884 11.9587 26.9002C12.5023 24.0372 13.8665 20.5233 15.8401 17.0997H15.8407Z" stroke="#00D8FF" stroke-width="8.911"/>
<path d="M15.8457 23.0592C13.885 19.6726 12.55 16.2442 11.9928 13.3988C11.322 9.97056 11.7962 7.34946 13.147 6.56759C14.5546 5.75259 17.2176 6.6979 20.0117 9.17884C22.1242 11.0545 24.2934 13.8759 26.1548 17.0912C28.0632 20.3877 29.4935 23.7276 30.05 26.5382C30.754 30.0951 30.1842 32.8127 28.8034 33.612C27.4637 34.3876 25.012 33.5665 22.3978 31.3168C20.189 29.4162 17.8259 26.4795 15.8457 23.0592Z" stroke="#00D8FF" stroke-width="8.911"/>
</svg>
