<svg width="100%" height="100%" viewBox="0 0 101 17" fill="none" xmlns="http://www.w3.org/2000/svg">
<path d="M99.2841 15.584C98.3164 16.1524 97.0722 16.4366 95.5514 16.4366C94.0307 16.4366 92.7481 15.922 91.7035 14.8928C90.659 13.8483 90.1367 12.412 90.1367 10.5841C90.1367 8.74077 90.6359 7.25844 91.6344 6.1371C92.6482 5.01575 93.9232 4.45508 95.4593 4.45508C96.9954 4.45508 98.1781 4.84678 99.0076 5.63019C99.8525 6.41359 100.275 7.36597 100.275 8.48731C100.275 10.9758 98.8464 12.22 95.9892 12.22H94.3994C94.3994 12.6808 94.5223 13.0034 94.768 13.1877C95.0292 13.3567 95.4055 13.4412 95.8971 13.4412C96.9723 13.4412 97.9938 13.1954 98.9616 12.7039C98.9769 12.6885 99.046 12.796 99.1689 13.0265C99.5376 13.687 99.7219 14.2477 99.7219 14.7085C99.7219 15.1539 99.576 15.4458 99.2841 15.584ZM96.404 8.9251C96.404 8.27994 96.0891 7.95736 95.4593 7.95736C95.1674 7.95736 94.914 8.04953 94.6989 8.23386C94.4992 8.40283 94.3994 8.65628 94.3994 8.99422V9.70851H95.6436C96.1505 9.70851 96.404 9.44737 96.404 8.9251Z" fill="white"/>
<path d="M86.7845 16.2751C86.7845 16.3827 86.0549 16.4364 84.5956 16.4364C83.1517 16.4364 82.4297 16.3903 82.4297 16.2982V12.1507C82.4297 12.0125 83.1517 11.9434 84.5956 11.9434C86.0549 11.9434 86.7845 11.9818 86.7845 12.0586V16.2751Z" fill="white"/>
<path d="M76.0415 16.2292C74.6744 16.2292 73.9908 16.0756 73.9908 15.7684L73.507 6.52882L70.6959 15.8836C70.6345 16.0679 70.1122 16.1601 69.1291 16.1601C68.146 16.1601 67.6391 16.0756 67.6084 15.9066L64.7052 6.43665L64.3826 15.6301C64.3672 15.8606 64.0754 16.0219 63.507 16.114C62.9387 16.1908 62.4625 16.2292 62.0785 16.2292C61.7098 16.2292 61.3488 16.2062 60.9955 16.1601C60.2582 16.0526 59.8972 15.8606 59.9126 15.5841L60.4425 0.607191C60.4425 0.23853 61.3795 0.0541992 63.2536 0.0541992C63.8066 0.0541992 64.4824 0.100282 65.2812 0.192447C66.08 0.269251 66.5254 0.430541 66.6176 0.676316L69.1982 7.93434L71.4563 0.653275C71.5945 0.253891 72.6544 0.0541992 74.636 0.0541992C75.2044 0.0541992 75.8802 0.100282 76.6636 0.192447C77.4624 0.269251 77.8618 0.41518 77.8618 0.630232L78.53 15.7454C78.53 15.9143 78.2304 16.0372 77.6314 16.114C77.0323 16.1908 76.5023 16.2292 76.0415 16.2292Z" fill="white"/>
<path d="M49.2512 12.243V4.04026H47.6153C47.3541 4.04026 47.1698 3.71 47.0623 3.04948C47.0162 2.7269 46.9932 2.39664 46.9932 2.0587C46.9932 1.72076 47.0162 1.39051 47.0623 1.06793C47.1698 0.407408 47.3541 0.0771484 47.6153 0.0771484H55.3572C55.6183 0.0771484 55.795 0.407408 55.8871 1.06793C55.9486 1.39051 55.9793 1.72076 55.9793 2.0587C55.9793 2.39664 55.9486 2.7269 55.8871 3.04948C55.795 3.71 55.6183 4.04026 55.3572 4.04026H53.8134V12.243H55.4263C55.6874 12.243 55.8718 12.5732 55.9793 13.2338C56.0407 13.5563 56.0715 13.8866 56.0715 14.2245C56.0715 14.5625 56.0407 14.8927 55.9793 15.2153C55.8718 15.8758 55.6874 16.2061 55.4263 16.2061H47.6614C47.4002 16.2061 47.2236 15.8758 47.1314 15.2153C47.07 14.8927 47.0392 14.5625 47.0392 14.2245C47.0392 13.8866 47.07 13.5563 47.1314 13.2338C47.2236 12.5732 47.4002 12.243 47.6614 12.243H49.2512Z" fill="white"/>
<path d="M36.2368 15.8835C36.2368 16.1293 35.5072 16.2522 34.0479 16.2522C32.5733 16.2522 31.8359 16.137 31.8359 15.9066V0.883596C31.8359 0.345964 32.1201 0.0771484 32.6885 0.0771484H37.0894C41.1293 0.0771484 43.1492 1.65164 43.1492 4.80062C43.1492 5.753 42.9649 6.62089 42.5962 7.4043C42.2276 8.17234 41.7053 8.78678 41.0294 9.2476L43.9326 14.0863C43.8098 14.4549 43.4104 14.8774 42.7345 15.3536C41.8128 16.0141 41.0525 16.3443 40.4534 16.3443C39.8543 16.3443 39.4089 16.1293 39.117 15.6992L36.9511 10.6531H36.2368V15.8835ZM36.2368 4.15547V7.61167H36.352C37.8113 7.61167 38.541 7.00491 38.541 5.7914C38.541 5.23841 38.395 4.83135 38.1032 4.57021C37.8267 4.29372 37.3659 4.15547 36.7207 4.15547H36.2368Z" fill="white"/>
<path d="M25.6564 6.48264C25.9483 6.48264 26.0942 7.02028 26.0942 8.09554C26.0942 8.41812 26.0558 8.80214 25.979 9.2476C25.9175 9.67771 25.7947 9.89276 25.6103 9.89276H22.6841V12.1969H26.9237C27.1848 12.1969 27.3615 12.5348 27.4536 13.2107C27.4997 13.5026 27.5228 13.8175 27.5228 14.1554C27.5228 14.478 27.4767 14.9004 27.3845 15.4227C27.2923 15.945 27.1387 16.2061 26.9237 16.2061H19.0435C18.4598 16.2061 18.168 15.968 18.168 15.4918V0.676224C18.168 0.27684 18.3446 0.0771484 18.6979 0.0771484H26.9467C27.2693 0.0771484 27.4306 0.760709 27.4306 2.12783C27.4306 3.47959 27.2693 4.15547 26.9467 4.15547H22.6841V6.48264H25.6564Z" fill="white"/>
<path d="M9.70683 0.837544C9.90652 0.299913 10.8896 0.0310977 12.6561 0.0310977C13.1016 0.0310977 13.6239 0.0618195 14.2229 0.123263C14.8374 0.184707 15.1215 0.261511 15.0755 0.353676L10.2829 9.98496V15.607C10.2829 15.8682 9.86043 16.0525 9.01558 16.16C8.58548 16.2215 8.16305 16.2522 7.74831 16.2522C7.33357 16.2522 6.91882 16.2292 6.50408 16.1831C5.65923 16.0756 5.2368 15.8835 5.2368 15.607V10.1232L0.282914 0.399759C0.221471 0.307593 0.536369 0.223109 1.22761 0.146304C1.91885 0.0541392 2.50256 0.00805664 2.97875 0.00805664C4.86814 0.00805664 5.905 0.284552 6.08933 0.837544L7.77135 5.53798L9.70683 0.837544Z" fill="white"/>
</svg>
